<?xml version="1.0" encoding="UTF-8" standalone="no"?>
<svg viewBox="0 0 60 71" version="1.1" xmlns="http://www.w3.org/2000/svg" xmlns:xlink="http://www.w3.org/1999/xlink" xmlns:sketch="http://www.bohemiancoding.com/sketch/ns">
   <title>Nib</title>
   <g id="Canvas" transform="translate(-353 36)">
      <g id="Nib">
         <g id="Shape">
            <use xlink:href="#path0_fill" transform="matrix(0.866025 0.5 -0.5 0.866025 398.621 -27.8143)" fill="url(#paint0_radial)"></use>
         </g>
         <g id="Shape">
            <use xlink:href="#path1_fill" transform="matrix(0.866025 0.5 -0.5 0.866025 384.765 -35.8143)" fill="url(#paint1_radial)"></use>
         </g>
      </g>
   </g>
   <defs>
      <radialGradient id="paint0_radial" cx="0.5" cy="0.5" r="0.5" gradientUnits="userSpaceOnUse" gradientTransform="matrix(46.0248 0 0 179.743 -15.0124 -58.6288)">
         <stop offset="0" stop-color="#FFCE00"></stop>
         <stop offset="0.1639" stop-color="#FFD600"></stop>
         <stop offset="0.579" stop-color="#FFE600"></stop>
         <stop offset="1" stop-color="#FFCE00"></stop>
      </radialGradient>
      <radialGradient id="paint1_radial" cx="0.5" cy="0.5" r="0.5" gradientUnits="userSpaceOnUse" gradientTransform="matrix(46.0248 0 0 179.742 -15.0124 -58.6282)">
         <stop offset="0" stop-color="#FFB600"></stop>
         <stop offset="0.5249" stop-color="#FFC200"></stop>
         <stop offset="1" stop-color="#F4A903"></stop>
      </radialGradient>
      <path id="path0_fill" fill-rule="evenodd" d="M 0 0L 0 40.7006C 1.90351 40.7006 3.4466 42.2289 3.4466 44.1141C 3.4466 45.9993 1.90351 47.5276 0 47.5276L 0 62.4857L 16 47.29L 0 0L 0 0Z"></path>
      <path id="path1_fill" fill-rule="evenodd" d="M 12.5534 44.1141C 12.5534 42.2289 14.0965 40.7006 16 40.7006L 16 0L 0 47.2896L 16 62.4853L 16 47.5272C 14.0965 47.5276 12.5534 45.9993 12.5534 44.1141L 12.5534 44.1141Z"></path>
   </defs>
</svg>